<svg width="13" height="16" viewBox="0 0 13 16" fill="none" xmlns="http://www.w3.org/2000/svg">
<path d="M12.8426 14.8725L9.42355 10.6658C10.2849 9.36794 10.708 7.71257 10.6055 6.04179C10.503 4.37101 9.88269 2.81253 8.8728 1.68846C7.86291 0.564385 6.54062 -0.0393626 5.17921 0.00199247C3.8178 0.0433476 2.52133 0.726644 1.55776 1.91066C0.594186 3.09468 0.0371557 4.68892 0.00179254 6.36389C-0.0335706 8.03886 0.455436 9.66653 1.36775 10.9105C2.28006 12.1545 3.54594 12.9197 4.90377 13.0479C6.2616 13.1762 7.60758 12.6577 8.66354 11.5997L12.0826 15.8063C12.1325 15.8677 12.1917 15.9164 12.2569 15.9497C12.3221 15.9829 12.392 16 12.4626 16C12.5332 16 12.6031 15.9829 12.6683 15.9497C12.7335 15.9164 12.7927 15.8677 12.8426 15.8063C12.8925 15.7449 12.9321 15.672 12.9591 15.5918C12.9861 15.5116 13 15.4256 13 15.3388C13 15.252 12.9861 15.166 12.9591 15.0858C12.9321 15.0055 12.8925 14.9339 12.8426 14.8725ZM1.09963 6.54927C1.09982 5.52264 1.34743 4.51913 1.81115 3.66562C2.27487 2.81212 2.93387 2.14696 3.70483 1.75425C4.47579 1.36154 5.32408 1.25891 6.14244 1.45935C6.9608 1.65978 7.71249 2.15427 8.30244 2.88029C8.8924 3.60632 9.29413 4.53127 9.45685 5.5382C9.61956 6.54513 9.53595 7.58881 9.21659 8.53727C8.89723 9.48574 8.35645 10.2964 7.66264 10.8667C6.96884 11.4371 6.15316 11.7415 5.31874 11.7415C4.19991 11.7402 3.12722 11.1927 2.33618 10.2193C1.54514 9.24576 1.10041 7.92584 1.09963 6.54927Z" fill="white"/>
</svg>
